<svg width="390" height="844" viewBox="0 0 390 844" fill="none" xmlns="http://www.w3.org/2000/svg">
<rect width="390" height="844" rx="36" fill="#FFFFFF" stroke="#DDE6EE"/>
<rect x="0" y="0" width="390" height="96" fill="#FFFFFF" stroke="#E6ECF1"/><text x="24" y="56" font-family="Inter, Pretendard, Noto Sans KR" font-size="22" font-weight="700" fill="#0D1B2A">메인</text>
<text x="24" y="120" font-family="Inter, Pretendard, Noto Sans KR" font-size="18" fill="#0D1B2A">Mnemory에 오신 것을 환영합니다</text>
<text x="24" y="148" font-family="Inter, Pretendard, Noto Sans KR" font-size="14" fill="#8AA0B2">주제를 고르고, 요약 카드를 푸시로 받아 반복 학습하세요.</text>
<rect x="20" y="180" width="350" height="190" rx="16" fill="#F4F7FA" stroke="#E6ECF1"/>
<text x="36" y="210" font-family="Inter, Pretendard, Noto Sans KR" font-size="16" font-weight="700" fill="#0D1B2A">예시 학습 카드</text>
<text x="36" y="236" font-family="Inter, Pretendard, Noto Sans KR" font-size="13" fill="#0D1B2A">• 핵심 요약 100–300자.
• 3–5개의 포인트.
• 난이도 버튼으로 간격 조정.</text>
<rect x="36" y="310" width="72" height="32" rx="8" fill="#EDF0FF"/><text x="72" y="330" text-anchor="middle" font-family="Inter, Pretendard, Noto Sans KR" font-size="13" fill="#5C47C3">쉬움</text>
<rect x="120" y="310" width="72" height="32" rx="8" fill="#EAEFF5"/><text x="156" y="330" text-anchor="middle" font-family="Inter, Pretendard, Noto Sans KR" font-size="13" fill="#0D1B2A">보통</text>
<rect x="204" y="310" width="72" height="32" rx="8" fill="#EAEFF5"/><text x="240" y="330" text-anchor="middle" font-family="Inter, Pretendard, Noto Sans KR" font-size="13" fill="#0D1B2A">어려움</text>
<rect x="20" y="392" width="165" height="48" rx="12" fill="#5C47C3"/><text x="102" y="422" text-anchor="middle" font-family="Inter, Pretendard, Noto Sans KR" font-size="15" fill="#FFFFFF">주제 선택</text>
<rect x="205" y="392" width="165" height="48" rx="12" fill="#3DC2C0"/><text x="287" y="422" text-anchor="middle" font-family="Inter, Pretendard, Noto Sans KR" font-size="15" fill="#FFFFFF">루틴 설정</text>
<rect x="0" y="760" width="390" height="84" fill="#FFFFFF" stroke="#E6ECF1"/>
<text x="80" y="807" text-anchor="middle" font-family="Inter, Pretendard, Noto Sans KR" font-size="12" fill="#0D1B2A">학습</text>
<text x="195" y="807" text-anchor="middle" font-family="Inter, Pretendard, Noto Sans KR" font-size="12" fill="#8AA0B2">채팅</text>
<text x="310" y="807" text-anchor="middle" font-family="Inter, Pretendard, Noto Sans KR" font-size="12" fill="#8AA0B2">내 정보</text>
</svg>