<svg width="390" height="844" viewBox="0 0 390 844" fill="none" xmlns="http://www.w3.org/2000/svg">
<rect width="390" height="844" rx="36" fill="#FFFFFF" stroke="#DDE6EE"/>
<rect x="0" y="0" width="390" height="96" fill="#FFFFFF" stroke="#E6ECF1"/><text x="24" y="56" font-family="Inter, Pretendard, Noto Sans KR" font-size="22" font-weight="700" fill="#0D1B2A">학습 목록 (3단계)</text>
<text x="24" y="120" font-family="Inter, Pretendard, Noto Sans KR" font-size="16" fill="#0D1B2A">주제 3단계</text>
<rect x="20" y="140" width="350" height="56" rx="12" fill="#F4F7FA" stroke="#E6ECF1"/><text x="36" y="174" font-family="Inter, Pretendard, Noto Sans KR" font-size="14" fill="#0D1B2A">항목 1</text><text x="340" y="174" text-anchor="end" font-family="Inter, Pretendard, Noto Sans KR" font-size="14" fill="#8AA0B2">></text>
<rect x="20" y="204" width="350" height="56" rx="12" fill="#F4F7FA" stroke="#E6ECF1"/><text x="36" y="238" font-family="Inter, Pretendard, Noto Sans KR" font-size="14" fill="#0D1B2A">항목 2</text><text x="340" y="238" text-anchor="end" font-family="Inter, Pretendard, Noto Sans KR" font-size="14" fill="#8AA0B2">></text>
<rect x="20" y="268" width="350" height="56" rx="12" fill="#F4F7FA" stroke="#E6ECF1"/><text x="36" y="302" font-family="Inter, Pretendard, Noto Sans KR" font-size="14" fill="#0D1B2A">항목 3</text><text x="340" y="302" text-anchor="end" font-family="Inter, Pretendard, Noto Sans KR" font-size="14" fill="#8AA0B2">></text>
<rect x="20" y="332" width="350" height="56" rx="12" fill="#F4F7FA" stroke="#E6ECF1"/><text x="36" y="366" font-family="Inter, Pretendard, Noto Sans KR" font-size="14" fill="#0D1B2A">항목 4</text><text x="340" y="366" text-anchor="end" font-family="Inter, Pretendard, Noto Sans KR" font-size="14" fill="#8AA0B2">></text>
<rect x="20" y="396" width="350" height="56" rx="12" fill="#F4F7FA" stroke="#E6ECF1"/><text x="36" y="430" font-family="Inter, Pretendard, Noto Sans KR" font-size="14" fill="#0D1B2A">항목 5</text><text x="340" y="430" text-anchor="end" font-family="Inter, Pretendard, Noto Sans KR" font-size="14" fill="#8AA0B2">></text>
<rect x="20" y="460" width="350" height="56" rx="12" fill="#F4F7FA" stroke="#E6ECF1"/><text x="36" y="494" font-family="Inter, Pretendard, Noto Sans KR" font-size="14" fill="#0D1B2A">항목 6</text><text x="340" y="494" text-anchor="end" font-family="Inter, Pretendard, Noto Sans KR" font-size="14" fill="#8AA0B2">></text>
</svg>